<?xml version="1.0" standalone="no"?><!DOCTYPE svg PUBLIC "-//W3C//DTD SVG 1.1//EN" "http://www.w3.org/Graphics/SVG/1.1/DTD/svg11.dtd"><svg t="1745560517065" class="icon" viewBox="0 0 1705 1024" version="1.1" xmlns="http://www.w3.org/2000/svg" p-id="1031" data-spm-anchor-id="a313x.collections_detail.0.i2.90ea3a81JNyWf7" xmlns:xlink="http://www.w3.org/1999/xlink" width="333.0078125" height="200"><path d="M1705.896437 512c0-0.510784-0.024323-0.997245-0.048646-1.508029-0.291876-11.383183-4.548409-22.547458-12.404751-31.279429-93.27886-132.00114-213.799525-246.124846-348.938337-330.23392C1187.961615 51.5162 1017.724656 0 852.230689 0 482.64209 0 176.974442 246.56266 12.429074 479.236865 4.572732 487.968836 0.340523 499.108789 0.048646 510.491971c0 0.510784-0.048646 0.997245-0.048646 1.508029 0 0.510784 0.024323 0.997245 0.048646 1.508029 0.291876 11.383183 4.548409 22.523135 12.380428 31.255106C176.950119 777.43734 482.64209 1024 852.206366 1024c165.493967 0 335.730926-51.5162 492.274014-148.978622 135.138812-84.109074 255.659477-198.232779 348.938337-330.23392 7.856342-8.756295 12.112874-19.896247 12.404751-31.279429 0-0.510784 0.048646-0.997245 0.048646-1.508029zM1293.085796 792.444656C1151.987838 880.275154 999.531021 926.707838 852.230689 926.707838s-299.392304-46.408361-440.07677-134.238859c-113.904798-71.096247-220.512684-169.872114-303.235344-280.468979 82.72266-110.596865 189.330546-209.372732 303.235344-280.468979C552.862708 143.700523 705.027648 97.292162 852.230689 97.292162s299.75715 46.432684 440.855107 134.263182c114.415582 71.217862 221.242375 169.993729 303.916389 280.444656-82.674014 110.450926-189.500808 209.226793-303.916389 280.444656z" p-id="1032" fill="#2c2c2c"></path><path d="M850.965891 167.828979c-188.430594 0-341.738717 153.308124-341.738718 341.738717S662.535297 851.306413 850.965891 851.306413s341.738717-153.308124 341.738717-341.738717S1039.396485 167.828979 850.965891 167.828979z m0 488.893111c-81.141663 0-147.154394-66.012732-147.154395-147.154394s66.012732-147.154394 147.154395-147.154394 147.154394 66.012732 147.154394 147.154394-66.012732 147.154394-147.154394 147.154394z" p-id="1033" fill="#2c2c2c"></path></svg>